<svg id="Capa_1" data-name="Capa 1" xmlns="http://www.w3.org/2000/svg" viewBox="0 0 16 16"><defs><style>.cls-1{fill:#1f335f;}.cls-2{fill:#be9d35;}</style></defs><polygon class="cls-1" points="0.84 2.21 1.2 2.21 7.19 11.36 7.19 2.21 8.32 2.21 8.32 14.66 8 14.66 1.99 5.51 2.01 14.66 0.84 14.66 0.84 2.21"/><path class="cls-1" d="M11.33,5.19a1.05,1.05,0,0,0,.91,1.12,1.22,1.22,0,0,0,1.15-.54s.06,0,.1,0c.35.22.71.41,1.06.63A2.52,2.52,0,0,1,12,7.44C9.86,7.36,9.17,4.58,10.42,3.1a2.7,2.7,0,0,1,3-.51,2.45,2.45,0,0,1,1.07,2.49c0,.11,0,.12-.12.12ZM13,4.25c0-1.14-1.5-1.12-1.65,0C11.44,4.26,12.91,4.27,13,4.25Z"/><path class="cls-1" d="M12.49,8.82a2.82,2.82,0,0,0-2.67,2.95,2.83,2.83,0,0,0,2.67,3,2.83,2.83,0,0,0,2.67-3A2.82,2.82,0,0,0,12.49,8.82Zm0,5a1.9,1.9,0,0,1-1.72-2,1.89,1.89,0,0,1,1.72-2,1.89,1.89,0,0,1,1.72,2A1.9,1.9,0,0,1,12.49,13.78Z"/><polygon class="cls-2" points="11.87 10.93 11.87 11.34 12.24 11.18 12.24 12.39 11.87 12.39 11.87 12.79 13.11 12.79 13.11 12.38 12.75 12.38 12.75 10.62 12.37 10.62 11.87 10.93"/></svg>